<svg width="24" height="18" viewBox="0 0 24 18" fill="none" xmlns="http://www.w3.org/2000/svg">
<path d="M14.9795 9.20215L16.3427 7.83903C16.4419 8.21009 16.5 8.59802 16.5 9.00002C16.5 11.4814 14.4814 13.5 12 13.5C11.598 13.5 11.21 13.4419 10.839 13.3427L12.2021 11.9796C12.9226 11.9306 13.601 11.6223 14.1116 11.1117C14.6223 10.601 14.9306 9.92265 14.9795 9.20215ZM23.9055 8.63571C23.8132 8.46977 22.5049 6.17722 19.9474 4.23435L18.8559 5.32578C20.7208 6.69697 21.9024 8.29615 22.3676 9.00115C21.4787 10.3547 17.9916 15 12 15C11.1015 15 10.266 14.8851 9.4798 14.7017L8.24736 15.9341C9.38042 16.2816 10.6258 16.5 12 16.5C19.8512 16.5 23.7437 9.65552 23.9055 9.36433C23.9675 9.25291 24 9.12752 24 9.00002C24 8.87252 23.9675 8.74713 23.9055 8.63571ZM20.7802 1.28029L4.28023 17.7803C4.13379 17.9267 3.94179 18 3.74998 18C3.55817 18 3.36617 17.9267 3.21973 17.7803C3.15004 17.7106 3.09476 17.628 3.05704 17.537C3.01932 17.446 2.99991 17.3485 2.99991 17.25C2.99991 17.1515 3.01932 17.054 3.05704 16.963C3.09476 16.872 3.15004 16.7894 3.21973 16.7198L5.31898 14.6205C1.92523 12.5717 0.200791 9.55577 0.0944788 9.36433C0.0325173 9.25287 0 9.12745 0 8.99993C0 8.8724 0.0325173 8.74698 0.0944788 8.63552C0.256291 8.34452 4.14879 1.50004 12 1.50004C14.03 1.50004 15.7884 1.96317 17.2916 2.64791L19.7197 0.219796C20.0128 -0.0732654 20.4874 -0.0732654 20.7802 0.219796C21.0731 0.512858 21.0733 0.987419 20.7802 1.28029ZM6.43742 13.5021L8.33623 11.6033C7.8118 10.8675 7.49998 9.97033 7.49998 9.00002C7.49998 6.51865 9.51861 4.50003 12 4.50003C12.9703 4.50003 13.8675 4.81185 14.6032 5.3361L16.1387 3.80066C14.9255 3.31485 13.547 3.00004 12 3.00004C6.00842 3.00004 2.52129 7.64534 1.63254 8.9989C2.19692 9.85427 3.81917 12.0195 6.43742 13.5021ZM9.42505 10.5143L13.5142 6.42509C13.0682 6.16165 12.5546 6.00003 12 6.00003C10.3459 6.00003 8.99998 7.3459 8.99998 9.00002C8.99998 9.55465 9.16161 10.0682 9.42505 10.5143Z" fill="#BBBBBB"/>
</svg>
